<svg width="16" height="16" viewBox="0 0 16 16" fill="none" xmlns="http://www.w3.org/2000/svg">
<path id="circle-check" fill-rule="evenodd" clip-rule="evenodd" d="M8 16C3.58172 16 0 12.4183 0 8C0 3.58172 3.58172 0 8 0C12.4183 0 16 3.58172 16 8C16 12.4183 12.4183 16 8 16ZM8 14.8571C11.7871 14.8571 14.8571 11.7871 14.8571 8C14.8571 4.2129 11.7871 1.14286 8 1.14286C4.2129 1.14286 1.14286 4.2129 1.14286 8C1.14286 11.7871 4.2129 14.8571 8 14.8571ZM7.83012 11.4286L11.3002 5.84329C11.534 5.46723 11.4396 4.95955 11.0891 4.70939C10.7372 4.45759 10.2656 4.5606 10.0325 4.93584L7.40808 9.16078L5.75648 7.97946C5.40452 7.72767 4.9322 7.83067 4.69985 8.20591C4.46597 8.58197 4.56044 9.08965 4.91087 9.33981L7.83012 11.4286Z" fill="black"/>
</svg>
