<svg width="16" height="16" viewBox="0 0 16 16" fill="none" xmlns="http://www.w3.org/2000/svg">
<path id="key" fill-rule="evenodd" clip-rule="evenodd" d="M10.6667 0C7.72133 0 5.33333 2.388 5.33333 5.33333C5.33333 5.74467 5.384 6.14333 5.472 6.528L0 12V16H4V14H6V12H8L9.47267 10.528C9.85733 10.616 10.256 10.6667 10.6667 10.6667C13.612 10.6667 16 8.27867 16 5.33333C16 2.388 13.612 0 10.6667 0ZM11.6667 5.33333C11.1147 5.33333 10.6667 4.88533 10.6667 4.33333C10.6667 3.78067 11.1147 3.33333 11.6667 3.33333C12.2187 3.33333 12.6667 3.78067 12.6667 4.33333C12.6667 4.88533 12.2187 5.33333 11.6667 5.33333Z" fill="black"/>
</svg>
