<svg width="18" height="15" viewBox="0 0 18 15" fill="none" xmlns="http://www.w3.org/2000/svg">
<path id="people" fill-rule="evenodd" clip-rule="evenodd" d="M10.2857 4.375C10.2857 6.78761 8.26644 8.75 5.78571 8.75C3.30417 8.75 1.28571 6.78761 1.28571 4.375C1.28571 1.96239 3.30499 0 5.78571 0C8.26644 0 10.2857 1.96239 10.2857 4.375ZM12.2143 5C12.2143 6.089 11.9263 7.11379 11.4205 8.00623C11.9814 8.46992 12.7077 8.75 13.5 8.75C15.2719 8.75 16.7143 7.3483 16.7143 5.625C16.7143 3.9017 15.2719 2.5 13.5 2.5C12.8997 2.5 12.3372 2.6609 11.8558 2.94069C12.088 3.58577 12.2143 4.2788 12.2143 5ZM12.375 10.0499C12.1948 10.0499 12.0165 9.92645 11.8406 9.80462C11.6534 9.67495 11.4689 9.54714 11.2875 9.572C12.6593 10.5429 13.5 11.8987 13.5 13.4233V15H18V13.4233C18 11.258 15.4763 10.0499 12.375 10.0499ZM0 13.4233C0 11.258 2.45278 10 5.76103 10C9.06928 10 11.5074 11.258 11.5074 13.4233V15H0V13.4233Z" fill="black"/>
</svg>
