<svg xmlns="http://www.w3.org/2000/svg" xmlns:xlink="http://www.w3.org/1999/xlink">
	<symbol id="circle-16x16" viewBox="0 0 16 16" xmlns="http://www.w3.org/2000/svg" xmlns:xlink="http://www.w3.org/1999/xlink">
		<path d="M8,14.8571429 C11.7870954,14.8571429 14.8571429,11.7870954 14.8571429,8 C14.8571429,4.21290457 11.7870954,1.14285714 8,1.14285714 C4.21290457,1.14285714 1.14285714,4.21290457 1.14285714,8 C1.14285714,11.7870954 4.21290457,14.8571429 8,14.8571429 Z M8,16 C3.581722,16 0,12.418278 0,8 C0,3.581722 3.581722,0 8,0 C12.418278,0 16,3.581722 16,8 C16,12.418278 12.418278,16 8,16 Z" id="check-circle-email-66x66"></path>
	</symbol>

	<symbol id="circle-check-16x16" viewBox="0 0 16 16" xmlns="http://www.w3.org/2000/svg" xmlns:xlink="http://www.w3.org/1999/xlink">
		<path d="M8,0 C12.418278,0 16,3.581722 16,8 C16,12.418278 12.418278,16 8,16 C3.581722,16 0,12.418278 0,8 C0,3.581722 3.581722,0 8,0 Z M8,1.14285714 C4.21290457,1.14285714 1.14285714,4.21290457 1.14285714,8 C1.14285714,11.7870954 4.21290457,14.8571429 8,14.8571429 C11.7870954,14.8571429 14.8571429,11.7870954 14.8571429,8 C14.8571429,4.21290457 11.7870954,1.14285714 8,1.14285714 Z M11.0891308,4.70938726 C11.4395624,4.9595479 11.5340266,5.46722686 11.3001516,5.84328535 L7.83011685,11.4285714 L4.91086919,9.33981178 C4.56043758,9.08965113 4.46597341,8.58197217 4.69984841,8.20591368 C4.93219981,7.83067271 5.40452067,7.72766539 5.7564759,7.97946107 L7.4080753,9.16077524 L10.0325033,4.93583987 C10.2656165,4.5605989 10.7371756,4.45759157 11.0891308,4.70938726 Z"></path>
	</symbol>

	<symbol id="error-14x14" viewBox="0 0 14 14" xmlns="http://www.w3.org/2000/svg" xmlns:xlink="http://www.w3.org/1999/xlink">
		<path d="M7,0 C3.13382222,0 0,3.13413333 0,7 C0,10.8661778 3.13382222,14 7,14 C10.8658667,14 14,10.8661778 14,7 C14,3.13413333 10.8658667,0 7,0 Z M6.11644444,3.60546667 C6.11644444,3.11842222 6.5128,2.72222222 7,2.72222222 C7.4872,2.72222222 7.88355556,3.11842222 7.88355556,3.60546667 L7.88355556,7.54242222 C7.88355556,8.02946667 7.4872,8.42566667 7,8.42566667 C6.5128,8.42566667 6.11644444,8.02946667 6.11644444,7.54242222 L6.11644444,3.60546667 Z M7,11.2777778 C6.44435556,11.2777778 5.992,10.8255778 5.992,10.2699333 C5.992,9.71366667 6.44435556,9.26146667 7,9.26146667 C7.55595556,9.26146667 8.008,9.71366667 8.008,10.2699333 C8.008,10.8255778 7.55595556,11.2777778 7,11.2777778 Z"></path>
	</symbol>

	<symbol id="key-16x16" viewBox="0 0 16 16" xmlns="http://www.w3.org/2000/svg" xmlns:xlink="http://www.w3.org/1999/xlink">
		<path d="M10.6666667,0 C7.72133333,0 5.33333333,2.388 5.33333333,5.33333333 C5.33333333,5.74466667 5.384,6.14333333 5.472,6.528 L0,12 L0,16 L4,16 L4,14 L6,14 L6,12 L8,12 L9.47266667,10.528 C9.85733333,10.616 10.256,10.6666667 10.6666667,10.6666667 C13.612,10.6666667 16,8.27866667 16,5.33333333 C16,2.388 13.612,0 10.6666667,0 Z M11.6666667,5.33333333 C11.1146667,5.33333333 10.6666667,4.88533333 10.6666667,4.33333333 C10.6666667,3.78066667 11.1146667,3.33333333 11.6666667,3.33333333 C12.2186667,3.33333333 12.6666667,3.78066667 12.6666667,4.33333333 C12.6666667,4.88533333 12.2186667,5.33333333 11.6666667,5.33333333 Z"></path>
	</symbol>

	<symbol id="key-check-16x16" viewBox="0 0 16 16" xmlns="http://www.w3.org/2000/svg" xmlns:xlink="http://www.w3.org/1999/xlink">
		<path d="M11.5,7 C13.9852814,7 16,9.01471863 16,11.5 C16,13.9852814 13.9852814,16 11.5,16 C9.01471863,16 7,13.9852814 7,11.5 C7,9.01471863 9.01471863,7 11.5,7 Z M10.6666667,0 C13.612,0 16,2.388 16,5.33333333 C16,6.10005503 15.8381767,6.82900893 15.5468241,7.48790123 C14.5146563,6.44501985 13.0826544,5.8 11.5,5.8 C8.35197687,5.8 5.8,8.35197687 5.8,11.5 C5.8,12.0201177 5.86966331,12.5239646 6.0001684,13.0027192 L6,14 L4,14 L4,16 L0,16 L0,12 L5.472,6.528 C5.384,6.14333333 5.33333333,5.74466667 5.33333333,5.33333333 C5.33333333,2.388 7.72133333,0 10.6666667,0 Z M13.0424559,9.09401407 L10.9250217,12.5027669 L9.59248115,11.5496601 C9.30851771,11.3465079 8.92744034,11.4296156 8.7399752,11.7323673 C8.55128033,12.0357779 8.62749611,12.4453827 8.91023034,12.6472167 L11.265533,14.3324661 L14.0652181,9.82615567 C14.2539154,9.52274509 14.1776981,9.11314132 13.8949639,8.91130685 C13.6110025,8.70815464 13.2305397,8.79126236 13.0424559,9.09401407 Z M11.6666667,3.33333333 C11.1146667,3.33333333 10.6666667,3.78066667 10.6666667,4.33333333 C10.6666667,4.88533333 11.1146667,5.33333333 11.6666667,5.33333333 C12.2186667,5.33333333 12.6666667,4.88533333 12.6666667,4.33333333 C12.6666667,3.78066667 12.2186667,3.33333333 11.6666667,3.33333333 Z"></path>
	</symbol>

	<symbol id="people-18x15" viewBox="0 0 18 15" xmlns="http://www.w3.org/2000/svg" xmlns:xlink="http://www.w3.org/1999/xlink">
		<path d="M11.2875,9.57199675 C11.63925,9.52378247 12.003,10.0499239 12.375,10.0499239 C15.47625,10.0499239 18,11.2580357 18,13.4232955 L18,13.4232955 L18,15 L13.5,15 L13.5,13.4232955 C13.5,11.8987013 12.65925,10.5428571 11.2875,9.57199675 Z M5.76102632,10 C9.06927632,10 11.5074029,11.2580357 11.5074029,13.4232955 L11.5074029,13.4232955 L11.5074029,15 L-1.0658141e-14,15 L-1.0658141e-14,13.4232955 C-1.0658141e-14,11.2580357 2.45277632,10 5.76102632,10 Z M5.78571429,0 C8.26644156,0 10.2857143,1.96238636 10.2857143,4.375 C10.2857143,6.78761364 8.26644156,8.75 5.78571429,8.75 C3.30416883,8.75 1.28571429,6.78761364 1.28571429,4.375 C1.28571429,1.96238636 3.30498701,0 5.78571429,0 Z M13.5,2.5 C15.2719481,2.5 16.7142857,3.90170455 16.7142857,5.625 C16.7142857,7.34829545 15.2719481,8.75 13.5,8.75 C12.7068162,8.75 11.9798689,8.46931724 11.4187085,8.00473678 C11.926368,7.11354166 12.2142857,6.08886863 12.2142857,5 C12.2142857,4.27893105 12.0880242,3.586014 11.85588,2.94103043 C12.3363593,2.6611251 12.8992354,2.5 13.5,2.5 Z"></path>
	</symbol>

	<symbol id="x-14x14" viewBox="0 0 14 14" xmlns="http://www.w3.org/2000/svg" xmlns:xlink="http://www.w3.org/1999/xlink">
		<path d="M9.05800241,7 L13.4681631,2.58983928 C14.1149639,1.94303852 14.1812306,0.950748474 13.6151633,0.384836701 C13.0492515,-0.181230629 12.0569615,-0.114963884 11.4101607,0.531836873 L7,4.94199759 L2.58983928,0.531836873 C1.94303852,-0.114963884 0.950748474,-0.181230629 0.384836701,0.384836701 C-0.181230629,0.950748474 -0.114963884,1.94303852 0.531836873,2.58983928 L4.94199759,7 L0.531836873,11.4101607 C-0.114963884,12.0569615 -0.181230629,13.0492515 0.384836701,13.6151633 C0.950748474,14.1812306 1.94303852,14.1149639 2.58983928,13.4681631 L7,9.05800241 L11.4101607,13.4681631 C12.0569615,14.1149639 13.0492515,14.1812306 13.6151633,13.6151633 C14.1812306,13.0492515 14.1149639,12.0569615 13.4681631,11.4101607 L9.05800241,7"></path>
	</symbol>
</svg>
