<svg width="14" height="14" viewBox="0 0 14 14" fill="none" xmlns="http://www.w3.org/2000/svg">
<path id="x" fill-rule="evenodd" clip-rule="evenodd" d="M9.058 7L13.4682 2.58984C14.115 1.94304 14.1812 0.950748 13.6152 0.384837C13.0493 -0.181231 12.057 -0.114964 11.4102 0.531837L7 4.942L2.58984 0.531837C1.94304 -0.114964 0.950748 -0.181231 0.384837 0.384837C-0.181231 0.950748 -0.114964 1.94304 0.531837 2.58984L4.942 7L0.531837 11.4102C-0.114964 12.057 -0.181231 13.0493 0.384837 13.6152C0.950748 14.1812 1.94304 14.115 2.58984 13.4682L7 9.058L11.4102 13.4682C12.057 14.115 13.0493 14.1812 13.6152 13.6152C14.1812 13.0493 14.115 12.057 13.4682 11.4102L9.058 7" fill="black"/>
</svg>
